<svg version="1.2" xmlns="http://www.w3.org/2000/svg" viewBox="0 0 64 64" width="64" height="64"><style>.a{fill:#fff;stroke:#000;stroke-width:2.3}</style><path class="a" d="m1.2 6.2c0-2.8 2.2-5 5-5h51.6c2.8 0 5 2.2 5 5v51.6c0 2.8-2.2 5-5 5h-51.6c-2.8 0-5-2.2-5-5z"/><path  d="m26.7 4.8q-0.8 0-2.6 0.1-4.8 0.1-7.6 0.1-2.6 0-7.1-0.2l-0.2 0.2v1.3l0.2 0.1q2.6 0.1 3.3 0.3 0.7 0.2 0.9 0.5 0.2 0.2 0.3 1.1 0.2 0.8 0.2 3.6v4.9 11.6 5.3q0 2.6-0.2 3.4-0.2 0.8-0.4 1-0.3 0.3-1 0.4-0.8 0.2-3.1 0.3l-0.2 0.1v1.3l0.2 0.2q6.3-0.2 7.1-0.2 1 0 2.8 0 4.3 0.2 4.4 0.2l0.2-0.2v-1.3l-0.2-0.1q-2.7-0.1-3.3-0.3-0.7-0.2-1-0.5-0.2-0.3-0.3-1.1-0.1-0.8-0.2-3.6v-4.9-11.6q0-8.8 0.4-9.4 2.3-0.7 4.9-0.7 3.8 0 6 1.7 2.2 1.7 2.2 5 0 3.7-2.5 5.7-2.4 2.1-6.7 2.1-0.8 0-2.1-0.1l-0.2 0.8q4.5 5.1 8.8 11.1c2.3 3.3 4.1 5.7 5.2 7.1l0.8 1.3-6.8 9.6q-2.6 3.6-3.5 4.8-0.9 1.1-1.5 1.4-0.6 0.3-2.3 0.3l-0.2 0.2v1.2l0.2 0.2q1.6-0.1 2.6-0.1 0.9 0 2.5 0.1 4.9-8.1 8.5-13.1l1.8-2.5 7.6 11.2q1.3 2.2 2.8 4.4 2.6-0.1 3.8-0.1 1 0 3.4 0.1l0.2-0.2v-1.2l-0.2-0.2q-1.6 0-2-0.2-0.5-0.2-1.2-1.1-0.8-1-2-3l-9.3-13.5q-0.1-0.1-0.1-0.2l1.8-2.5 4.6-6.3q2.5-3.3 3.4-4.2 0.8-0.8 1.3-1 0.5-0.3 2.1-0.3l0.2-0.2v-1.2l-0.2-0.2q-2.2 0.1-2.4 0.1-0.4 0-2.5-0.1l-9.6 14c-0.3-0.5-0.9-1.2-1.7-2.3q-2-2.6-3.7-4.9l-3.5-4.7q-1.9-2.4-2.6-3.4 3.8-0.7 6-2.2 2.1-1.4 3.2-3.4 1.1-2 1.1-4.1 0-3.2-2.2-5.5-2.3-2.3-8.6-2.3z"/></svg>